<?xml version="1.0" standalone="no"?>
<!DOCTYPE svg PUBLIC "-//W3C//DTD SVG 20010904//EN"
 "http://www.w3.org/TR/2001/REC-SVG-20010904/DTD/svg10.dtd">
<svg version="1.0" xmlns="http://www.w3.org/2000/svg"
 width="107.000000pt" height="96.000000pt" viewBox="0 0 107.000000 96.000000"
 preserveAspectRatio="xMidYMid meet">

<g transform="translate(0.000000,96.000000) scale(0.100000,-0.100000)"
fill="#000000" stroke="none">
<path d="M457 612 c-9 -10 -24 -40 -33 -65 -14 -40 -20 -47 -43 -47 -25 0 -26
2 -23 39 2 21 -1 48 -7 60 -17 31 -71 28 -105 -5 -46 -46 -26 -76 21 -32 31
29 48 13 39 -36 -5 -27 -12 -36 -26 -36 -13 0 -20 -7 -20 -20 0 -12 7 -20 16
-20 16 0 16 -12 -2 -71 -2 -9 2 -21 10 -28 20 -17 42 9 51 58 5 32 11 40 33
44 35 7 42 1 42 -32 0 -39 30 -73 63 -73 36 0 77 28 77 52 0 24 -4 25 -35 4
-36 -23 -55 -12 -55 33 0 32 5 41 29 55 35 19 61 89 44 116 -15 24 -56 26 -76
4z m29 -80 c-15 -15 -16 -15 -16 2 0 9 6 27 12 39 l13 22 3 -24 c2 -13 -3 -31
-12 -39z"/>
<path d="M663 605 c-35 -15 -53 -57 -36 -84 14 -22 38 -20 38 4 1 11 4 26 8
33 10 16 47 16 47 0 0 -29 -13 -58 -25 -58 -21 0 -26 -29 -6 -41 12 -8 16 -20
13 -36 -6 -33 -34 -46 -58 -28 -41 31 -75 6 -36 -27 58 -50 124 -23 147 60 4
14 14 22 29 22 29 0 61 24 52 38 -4 7 -20 12 -37 12 -27 0 -29 2 -29 41 l0 41
55 -4 c56 -5 85 8 70 32 -10 15 -194 12 -232 -5z"/>
</g>
</svg>
